# xmcd CD database file
# Copyright (C) 1995 Ti Kan
#
# Track frame offsets:
#	150
#	13273
#	43710
#	64190
#	77960
#	91486
#	103484
#	113571
#	143028
#	159214
#	174816
#	195280
#	205012
#	226634
#	239768
#	253466
#	263322
#	278170
#
# Disc length: 3972 seconds
#
# Revision: 1
# Processed by: cddbd v1.4b41PL2 Copyright (c) Steve Scherf et al.
# Submitted via: NotifyCDPlayer(CDDB) 1.60beta5_freedb
#
DISCID=ee0f8212
DTITLE=Angry Johnny and the Killbillies - What's so Funny?
DYEAR=1900
DGENRE=
TTITLE0=All American Girl
TTITLE1=High Noon in Killville
TTITLE2=Disposable Boy
TTITLE3=The Joneses
TTITLE4=Henry
TTITLE5=Shitty Day
TTITLE6=49
TTITLE7=Sent Him Home
TTITLE8=My Ghoul Maggie
TTITLE9=Devil's Run
TTITLE10=Won't Get Me Out of Your Mind
TTITLE11=Jezebel
TTITLE12=Walking Alone
TTITLE13=Kill Again
TTITLE14=Daisies
TTITLE15=Davie and Jeannie
TTITLE16=Old Boyfriend
TTITLE17=A Love More True
EXTD=
EXTT0=
EXTT1=
EXTT2=
EXTT3=
EXTT4=
EXTT5=
EXTT6=
EXTT7=
EXTT8=
EXTT9=
EXTT10=
EXTT11=
EXTT12=
EXTT13=
EXTT14=
EXTT15=
EXTT16=
EXTT17=
PLAYORDER=
